<?xml version="1.0" encoding="UTF-8"?>
<svg width="24px" height="24px" viewBox="0 0 24 24" version="1.1" xmlns="http://www.w3.org/2000/svg" xmlns:xlink="http://www.w3.org/1999/xlink">
    <!-- Generator: Sketch 61.2 (89653) - https://sketch.com -->
    <title>and-icon</title>
    <desc>Created with Sketch.</desc>
    <g id="Page-1" stroke="none" stroke-width="1" fill="none" fill-rule="evenodd">
        <path d="M21,13.2755906 L19.0147059,13.2755906 C18.3860294,15.0393701 17.6911765,16.4566929 16.8639706,17.6535433 C18.5183824,19.1653543 20.1066176,20.5511811 20.5698529,20.8976378 L19.4448529,22 C18.9816176,21.6220472 17.4926471,20.3307087 15.9044118,18.8818898 C14.0514706,20.8976378 11.7022059,21.8425197 8.98897059,21.8425197 C4.95220588,21.8425197 3,19.3858268 3,16.9606299 C3,14.4724409 4.52205882,12.8976378 7.56617647,11.0393701 C5.74632353,9.02362205 5.41544118,8.01574803 5.41544118,6.56692913 C5.41544118,4.48818898 7.10294118,2 10.3125,2 C12.6286765,2 14.5808824,3.57480315 14.5808824,5.81102362 C14.5808824,7.41732283 13.6875,8.96062992 9.94852941,11.2598425 C10.5772059,11.9212598 11.3713235,12.6456693 12.3639706,13.5275591 C12.3639706,13.5275591 13.9522059,15.007874 15.7720588,16.6456693 C16.5,15.6062992 17.0625,14.4409449 17.4926471,13.2755906 L15.5735294,13.2755906 L15.5735294,11.8267717 L21,11.8267717 L21,13.2755906 Z M8.98897059,20.3307087 C11.4705882,20.3307087 13.3566176,19.3228346 14.7794118,17.8425197 C12.8933824,16.1417323 11.2389706,14.5984252 11.2389706,14.5984252 C10.1470588,13.6220472 9.28676471,12.8031496 8.55882353,12.1102362 C5.74632353,13.8425197 4.81985294,15.1338583 4.81985294,16.992126 C4.81985294,18.6299213 6.14338235,20.3307087 8.98897059,20.3307087 Z M7.16911765,6.62992126 C7.16911765,7.60629921 7.43382353,8.48818898 8.95588235,10.2204724 C12.3970588,8.11023622 12.8272059,7.00787402 12.8272059,5.81102362 C12.8272059,4.42519685 11.7352941,3.4488189 10.3125,3.4488189 C8.45955882,3.4488189 7.16911765,4.77165354 7.16911765,6.62992126 Z" id="&amp;" fill="#D1D1D6" fill-rule="nonzero"></path>
    </g>
</svg>
