<?xml version="1.0" encoding="UTF-8"?>
<svg width="24px" height="24px" viewBox="0 0 24 24" version="1.1" xmlns="http://www.w3.org/2000/svg" xmlns:xlink="http://www.w3.org/1999/xlink">
    <title>Icons/card</title>
    <g id="Icons/card" stroke="none" fill="none">
        <path d="M3.75,7.75 L3.75,16.25 C3.75,17.3545695 4.6454305,18.25 5.75,18.25 L18.25,18.25 C19.3545695,18.25 20.25,17.3545695 20.25,16.25 L20.25,7.75 C20.25,6.6454305 19.3545695,5.75 18.25,5.75 L5.75,5.75 C4.6454305,5.75 3.75,6.6454305 3.75,7.75 Z" id="Path-6" stroke="#000000" stroke-width="1.5" stroke-linejoin="round"></path>
        <path d="M19.5,15.5 C15,15.5 9,14 9,11 C9,10.3333333 9.61785113,9.61785113 10.8535534,8.85355339 C10.9511845,8.77118446 11,8.65333333 11,8.5 C11,8.22 10.78,8 10.5,8 C10.32,8 6,10.25 6,12 C6,14 7.33333333,15.8333333 10,17.5 L18.25,17.5 C18.9403559,17.5 19.5,16.9403559 19.5,16.25 C19.5,16 19.5,15.75 19.5,15.5 Z" id="Path-Copy" fill="#000000" fill-rule="evenodd" opacity="0.600000024"></path>
        <path d="M15,13 C16.1045695,13 17,12.1045695 17,11 C17,9.8954305 16.1045695,9 15,9 C13.8954305,9 13,9.8954305 13,11 C13,12.1045695 13.8954305,13 15,13 Z" id="Oval" fill-opacity="0.6" fill="#000000" fill-rule="evenodd"></path>
    </g>
</svg>