<?xml version="1.0" encoding="UTF-8"?>
<svg width="24px" height="24px" viewBox="0 0 24 24" version="1.1" xmlns="http://www.w3.org/2000/svg" xmlns:xlink="http://www.w3.org/1999/xlink">
    <title>Icons/full-card</title>
    <g id="Icons/full-card" stroke="none" fill="none" fill-rule="evenodd">
        <path d="M18.25,3 C19.7687831,3 21,4.23121694 21,5.75 L21,18.25 C21,19.7687831 19.7687831,21 18.25,21 L5.75,21 C4.23121694,21 3,19.7687831 3,18.25 L3,5.75 C3,4.23121694 4.23121694,3 5.75,3 L18.25,3 Z M18.25,4.5 L5.75,4.5 C5.05964406,4.5 4.5,5.05964406 4.5,5.75 L4.5,14.25 C4.5,14.9403559 5.05964406,15.5 5.75,15.5 L18.25,15.5 C18.9403559,15.5 19.5,14.9403559 19.5,14.25 L19.5,5.75 C19.5,5.05964406 18.9403559,4.5 18.25,4.5 Z" id="Combined-Shape" fill="#000000"></path>
        <path d="M15,11 C16.1045695,11 17,10.1045695 17,9 C17,7.8954305 16.1045695,7 15,7 C13.8954305,7 13,7.8954305 13,9 C13,10.1045695 13.8954305,11 15,11 Z" id="Oval" fill-opacity="0.6" fill="#000000"></path>
        <path d="M19.5,13.5 C15,13.5 9,12 9,9 C9,8.33333333 9.61785113,7.61785113 10.8535534,6.85355339 C10.9511845,6.77118446 11,6.65333333 11,6.5 C11,6.22 10.78,6 10.5,6 C10.32,6 6,8.25 6,10 C6,12 7.33333333,13.8333333 10,15.5 L18.25,15.5 C18.9403559,15.5 19.5,14.9403559 19.5,14.25 C19.5,14 19.5,13.75 19.5,13.5 Z" id="Path-Copy" fill="#000000" opacity="0.600000024"></path>
    </g>
</svg>