<?xml version="1.0" encoding="UTF-8"?>
<svg width="24px" height="24px" viewBox="0 0 24 24" version="1.1" xmlns="http://www.w3.org/2000/svg" xmlns:xlink="http://www.w3.org/1999/xlink">
    <title>Icons/full-card-night</title>
    <g id="Icons/full-card-night" stroke="none" fill="none" fill-rule="evenodd">
        <path d="M18.25,3 C19.7687831,3 21,4.23121694 21,5.75 L21,18.25 C21,19.7687831 19.7687831,21 18.25,21 L5.75,21 C4.23121694,21 3,19.7687831 3,18.25 L3,5.75 C3,4.23121694 4.23121694,3 5.75,3 L18.25,3 Z M18.25,4.5 L5.75,4.5 C5.05964406,4.5 4.5,5.05964406 4.5,5.75 L4.5,14.25 C4.5,14.9403559 5.05964406,15.5 5.75,15.5 L18.25,15.5 C18.9403559,15.5 19.5,14.9403559 19.5,14.25 L19.5,5.75 C19.5,5.05964406 18.9403559,4.5 18.25,4.5 Z" id="Combined-Shape" fill="#FFFFFF" opacity="0.600000024"></path>
        <path d="M15.6441796,7.10600715 C16.4326985,7.37411498 17,8.12080731 17,9 C17,10.1045695 16.1045695,11 15,11 C14.1208073,11 13.374115,10.4326985 13.1060071,9.64417964 C13.3079534,9.712721 13.5246232,9.75 13.75,9.75 C14.8545695,9.75 15.75,8.8545695 15.75,7.75 C15.75,7.54916918 15.720399,7.35525205 15.6653219,7.17237357 Z" id="Combined-Shape" fill="#FFFFFF"></path>
        <path d="M19.5,13.5 C15,13.5 9,12 9,9 C9,8.33333333 9.61785113,7.61785113 10.8535534,6.85355339 C10.9511845,6.77118446 11,6.65333333 11,6.5 C11,6.22 10.78,6 10.5,6 C10.32,6 6,8.25 6,10 C6,12 7.33333333,13.8333333 10,15.5 L18.25,15.5 C18.9403559,15.5 19.5,14.9403559 19.5,14.25 C19.5,14 19.5,13.75 19.5,13.5 Z" id="Path-Copy" fill="#FFFFFF"></path>
    </g>
</svg>