<svg width="24" height="24" xmlns="http://www.w3.org/2000/svg">
    <g fill="none" fill-rule="evenodd">
        <path d="M0 0h24v24H0z"/>
        <path d="M13.193 3.001l1.1.008c.573.008.9.022 1.418.045.958.044 1.612.196 2.184.419.592.23 1.094.537 1.594 1.038.5.5.809 1.002 1.039 1.594.197.509.34 1.082.4 1.876l.043.903c.01.248.016.496.02.823L21 13.042c-.003 1.52-.017 1.866-.053 2.669-.044.958-.196 1.612-.418 2.184a4.412 4.412 0 01-1.039 1.594c-.5.5-1.002.809-1.594 1.039-.509.197-1.082.34-1.876.4l-.903.043c-.62.023-1.236.029-3.116.029l-2.137-.007a38.095 38.095 0 01-1.574-.047c-.958-.044-1.612-.196-2.184-.418a4.412 4.412 0 01-1.594-1.039c-.5-.5-.809-1.002-1.038-1.594-.198-.509-.34-1.082-.4-1.876l-.047-.996A57.223 57.223 0 013 13.193l.004-3.108c.007-.828.02-1.175.05-1.796.043-.958.195-1.612.418-2.184A4.411 4.411 0 014.51 4.51c.5-.5 1.002-.809 1.594-1.038.509-.198 1.082-.34 1.876-.4l.996-.047c.397-.014.817-.02 1.588-.024h2.628zm.644 1.625h-3.674c-.84.006-1.176.02-1.8.048-.877.04-1.354.187-1.67.31-.421.163-.72.358-1.036.673-.315.315-.51.615-.673 1.035-.113.29-.246.715-.298 1.46l-.04.872c-.017.52-.023 1.07-.024 2.439l.004 2.374c.006.84.02 1.176.048 1.8.04.877.187 1.354.31 1.67.163.421.358.72.673 1.036.315.315.615.51 1.035.673.29.113.715.246 1.46.298l.211.012c.789.036 1.119.048 2.587.051l2.968-.003c.72-.006 1.062-.019 1.584-.042l.135-.006c.877-.04 1.354-.187 1.67-.31.421-.163.72-.358 1.036-.673.315-.315.51-.615.673-1.035.113-.29.246-.715.298-1.46l.012-.211c.036-.789.048-1.119.051-2.587l-.003-2.968a36.397 36.397 0 00-.042-1.584l-.006-.135c-.04-.877-.187-1.354-.31-1.67a2.788 2.788 0 00-.673-1.036 2.788 2.788 0 00-1.035-.673c-.29-.113-.715-.246-1.46-.298l-.872-.04c-.313-.01-.635-.017-1.14-.02zM12 7.378a4.622 4.622 0 110 9.244 4.622 4.622 0 010-9.244zM12 9a3 3 0 100 6 3 3 0 000-6zm4.804-2.884a1.08 1.08 0 110 2.16 1.08 1.08 0 010-2.16z" fill="#000"/>
    </g>
</svg>
