<svg xmlns="http://www.w3.org/2000/svg" xmlns:xlink="http://www.w3.org/1999/xlink" width="147" height="32" viewBox="0 0 147 32">
    <defs>
        <circle id="a" cx="16" cy="16" r="16"/>
        <path id="d" d="M16 0c5.333 0 12.444 7.111 12.444 16S21.334 32 16 32V0z"/>
        <filter id="c" width="212.5%" height="143.8%" x="-56.2%" y="-15.6%" filterUnits="objectBoundingBox">
            <feOffset dy="2" in="SourceAlpha" result="shadowOffsetOuter1"/>
            <feGaussianBlur in="shadowOffsetOuter1" result="shadowBlurOuter1" stdDeviation="2"/>
            <feComposite in="shadowBlurOuter1" in2="SourceAlpha" operator="out" result="shadowBlurOuter1"/>
            <feColorMatrix in="shadowBlurOuter1" values="0 0 0 0 0 0 0 0 0 0 0 0 0 0 0 0 0 0 0.12 0"/>
        </filter>
        <path id="f" d="M16 0c1.778 0 7.111 5.111 7.111 16S17.778 32 16 32V0z"/>
        <filter id="e" width="296.9%" height="143.8%" x="-98.4%" y="-15.6%" filterUnits="objectBoundingBox">
            <feOffset dy="2" in="SourceAlpha" result="shadowOffsetOuter1"/>
            <feGaussianBlur in="shadowOffsetOuter1" result="shadowBlurOuter1" stdDeviation="2"/>
            <feComposite in="shadowBlurOuter1" in2="SourceAlpha" operator="out" result="shadowBlurOuter1"/>
            <feColorMatrix in="shadowBlurOuter1" values="0 0 0 0 0 0 0 0 0 0 0 0 0 0 0 0 0 0 0.2 0"/>
        </filter>
    </defs>
    <g fill="none" fill-rule="evenodd">
        <path fill="#2E2F30" fill-rule="nonzero" d="M46.21 22.5c-1.263 0-2.362-.267-3.294-.8a5.417 5.417 0 0 1-2.158-2.266c-.505-.977-.758-2.124-.758-3.443s.253-2.466.758-3.443a5.36 5.36 0 0 1 2.158-2.257c.932-.527 2.03-.791 3.294-.791 1.264 0 2.362.264 3.295.791a5.36 5.36 0 0 1 2.157 2.257c.506.977.758 2.124.758 3.443s-.252 2.466-.758 3.443a5.417 5.417 0 0 1-2.157 2.266c-.933.533-2.031.8-3.295.8zm0-2.176c1.06 0 1.893-.371 2.5-1.114.608-.744.912-1.816.912-3.219 0-1.402-.3-2.472-.902-3.21-.602-.737-1.439-1.105-2.51-1.105-1.07 0-1.904.368-2.5 1.105-.596.738-.894 1.808-.894 3.21 0 1.403.301 2.475.903 3.219.602.743 1.432 1.114 2.491 1.114zM63.523 9.662h2.852l-5.722 12.676h-2.257l-5.74-12.676h2.924l3.971 9.188 3.972-9.188zm3.827 12.676V9.662h8.774v2.175h-6.03v2.967h5.669v2.176h-5.669v3.183h6.03v2.175H67.35zm21.754 0h-3.069l-2.202-4.045c-.18-.312-.398-.537-.65-.675-.253-.138-.572-.207-.957-.207h-1.39v4.927h-2.78V9.662h5.849c1.492 0 2.62.326 3.385.98.764.653 1.146 1.597 1.146 2.832 0 .959-.268 1.762-.803 2.41-.536.646-1.291 1.072-2.266 1.276.662.168 1.222.641 1.68 1.42l2.057 3.758zM83.49 15.29c.806 0 1.39-.141 1.75-.423.362-.281.542-.722.542-1.321 0-.612-.18-1.055-.541-1.33-.361-.277-.945-.414-1.751-.414H80.8v3.488h2.69zm7.22 7.048V9.662h2.817v10.393h5.687v2.283H90.71zm19.86 0l-1.21-2.805h-5.922l-1.21 2.805h-2.834l5.85-12.676h2.256l5.85 12.676h-2.78zm-6.211-4.927h4.08l-2.04-4.746-2.04 4.746zm10.055-7.75h5.85c1.384 0 2.46.348 3.231 1.044.77.695 1.155 1.666 1.155 2.913 0 1.246-.385 2.217-1.155 2.912-.77.696-1.847 1.043-3.231 1.043h-3.033v4.765h-2.817V9.662zm5.488 5.79c1.409 0 2.113-.605 2.113-1.815 0-.624-.175-1.085-.524-1.385-.349-.3-.878-.45-1.589-.45h-2.671v3.65h2.671zm11.03 7.049c-.962 0-1.889-.129-2.78-.387-.89-.257-1.63-.614-2.22-1.07l.903-1.995c1.227.85 2.605 1.276 4.134 1.276.794 0 1.405-.129 1.832-.386.428-.258.641-.615.641-1.07 0-.408-.195-.725-.587-.953-.39-.228-1.086-.45-2.085-.665-1.119-.228-2.013-.504-2.68-.827-.668-.324-1.156-.723-1.463-1.196-.307-.474-.46-1.058-.46-1.753 0-.767.213-1.45.64-2.05.428-.6 1.027-1.07 1.797-1.412.77-.341 1.66-.512 2.672-.512.903 0 1.772.132 2.609.396.836.263 1.5.617 1.994 1.06l-.902 1.996c-1.168-.85-2.395-1.276-3.683-1.276-.734 0-1.312.14-1.733.422-.421.282-.632.668-.632 1.16 0 .288.081.524.244.71.162.186.433.35.812.495.38.144.918.293 1.616.45 1.637.359 2.813.82 3.53 1.384.715.563 1.073 1.342 1.073 2.337 0 1.199-.463 2.143-1.39 2.832-.926.69-2.22 1.034-3.881 1.034zm7.294-.162V9.662H147v2.175h-6.03v2.967h5.669v2.176h-5.669v3.183H147v2.175h-8.774z"/>
        <g>
            <mask id="b" fill="#fff">
                <use xlink:href="#a"/>
            </mask>
            <use fill="#FFF" xlink:href="#a"/>
            <path fill="#0D0E0F" fill-opacity=".2" d="M16 0c8.837 0 16 7.163 16 16s-7.163 16-16 16V0z" mask="url(#b)"/>
            <g mask="url(#b)">
                <use fill="#000" filter="url(#c)" xlink:href="#d"/>
                <use fill="#0D0E0F" fill-opacity=".3" xlink:href="#d"/>
            </g>
            <g mask="url(#b)">
                <use fill="#000" filter="url(#e)" xlink:href="#f"/>
                <use fill="#0D0E0F" fill-opacity=".4" xlink:href="#f"/>
            </g>
            <path fill="#0D0E0F" d="M16 0v32C7.163 32 0 24.837 0 16S7.163 0 16 0z" mask="url(#b)"/>
        </g>
    </g>
</svg>
