<?xml version="1.0" encoding="UTF-8"?>
<svg width="24px" height="24px" viewBox="0 0 24 24" version="1.1" xmlns="http://www.w3.org/2000/svg" xmlns:xlink="http://www.w3.org/1999/xlink">
    <title>Icons/photo-corners-night</title>
    <g id="Icons/photo-corners-night" stroke="none" fill="none" fill-rule="evenodd">
        <g id="Group" opacity="0.600000024" stroke-width="1" transform="translate(2.5, 4.5)">
            <path d="M5.5,0.5 L5.5,2 C5.5,2.27614237 5.27614237,2.5 5,2.5 L3.255,2.5 C2.83802501,2.5 2.5,2.83802501 2.5,3.255 L2.5,5 C2.5,5.27614237 2.27614237,5.5 2,5.5 L0.5,5.5 C0.223857625,5.5 0,5.27614237 0,5 L0,3.5 L0,3.5 L0,3.25 C0,1.45507456 1.45507456,0 3.25,0 L3.5,0 L3.5,0 L5,0 C5.27614237,0 5.5,0.223857625 5.5,0.5 Z" id="Rectangle-2" fill="#FFFFFF"></path>
            <path d="M19,10 L19,11.5 C19,11.7761424 18.7761424,12 18.5,12 L16.755,12 C16.338025,12 16,12.338025 16,12.755 L16,14.5 C16,14.7761424 15.7761424,15 15.5,15 L14,15 C13.7238576,15 13.5,14.7761424 13.5,14.5 L13.5,13 L13.5,13 L13.5,12.75 C13.5,10.9550746 14.9550746,9.5 16.75,9.5 L17,9.5 L17,9.5 L18.5,9.5 C18.7761424,9.5 19,9.72385763 19,10 Z" id="Rectangle-2-Copy" fill="#FFFFFF" transform="translate(16.25, 12.25) scale(-1, -1) translate(-16.25, -12.25)"></path>
            <path d="M1.25,3.25 L1.25,11.75 C1.25,12.8545695 2.1454305,13.75 3.25,13.75 L15.75,13.75 C16.8545695,13.75 17.75,12.8545695 17.75,11.75 L17.75,3.25 C17.75,2.1454305 16.8545695,1.25 15.75,1.25 L3.25,1.25 C2.1454305,1.25 1.25,2.1454305 1.25,3.25 Z" id="Path-6" stroke="#FFFFFF" stroke-width="1.5" stroke-linejoin="round"></path>
        </g>
        <path d="M15.6441796,9.10600715 C16.4326985,9.37411498 17,10.1208073 17,11 C17,12.1045695 16.1045695,13 15,13 C14.1208073,13 13.374115,12.4326985 13.1060071,11.6441796 C13.3079534,11.712721 13.5246232,11.75 13.75,11.75 C14.8545695,11.75 15.75,10.8545695 15.75,9.75 C15.75,9.54916918 15.720399,9.35525205 15.6653219,9.17237357 Z" id="Combined-Shape" fill="#FFFFFF"></path>
        <path d="M10.5,8 C10.78,8 11,8.22 11,8.5 C11,8.65333333 10.9511845,8.77118446 10.8535534,8.85355339 C9.61785113,9.61785113 9,10.3333333 9,11 C9,13.8902012 14.5688421,15.3881919 19.0002453,15.4939721 L19,16.245 C19,16.661975 18.661975,17 18.245,17 L16.5,17 C16.2238576,17 16,17.2238576 16,17.5 L10,17.5 C7.33333333,15.8333333 6,14 6,12 C6,10.25 10.32,8 10.5,8 Z" id="Path-Copy-2" fill="#FFFFFF"></path>
    </g>
</svg>