<?xml version="1.0" encoding="UTF-8"?>
<svg width="24px" height="24px" viewBox="0 0 24 24" version="1.1" xmlns="http://www.w3.org/2000/svg" xmlns:xlink="http://www.w3.org/1999/xlink">
    <title>Icons/photo-corners</title>
    <g id="Icons/photo-corners" stroke="none" fill="none">
        <path d="M6.9144177,5.25 L7.08572962,5.93524771 L5.6589529,6.25301536 C5.28161477,6.27678038 4.94201289,6.4395957 4.69080429,6.69080429 C4.41845286,6.96315573 4.25,7.33940573 4.25,7.755 L4.25,8.9144177 L3.5651046,9.08564154 L3.25116573,7.67291662 C3.27114573,7.01319245 3.54672137,6.41774473 3.98223305,5.98223305 C4.43464406,5.52982203 5.05964406,5.25 5.75,5.25 L6.9144177,5.25 Z" id="Rectangle-2" stroke="#000000" stroke-width="1.5"></path>
        <path d="M20.4144177,14.75 L20.5857296,15.4352477 L19.1589529,15.7530154 C18.7816148,15.7767804 18.4420129,15.9395957 18.1908043,16.1908043 C17.9184529,16.4631557 17.75,16.8394057 17.75,17.255 L17.75,18.4144177 L17.0651046,18.5856415 L16.7511657,17.1729166 C16.7711457,16.5131925 17.0467214,15.9177447 17.482233,15.482233 C17.9346441,15.029822 18.5596441,14.75 19.25,14.75 L20.4144177,14.75 Z" id="Rectangle-2-Copy" stroke="#000000" stroke-width="1.5" transform="translate(18.75, 16.75) scale(-1, -1) translate(-18.75, -16.75)"></path>
        <path d="M3.75,7.75 L3.75,16.25 C3.75,17.3545695 4.6454305,18.25 5.75,18.25 L18.25,18.25 C19.3545695,18.25 20.25,17.3545695 20.25,16.25 L20.25,7.75 C20.25,6.6454305 19.3545695,5.75 18.25,5.75 L5.75,5.75 C4.6454305,5.75 3.75,6.6454305 3.75,7.75 Z" id="Path-6" stroke="#000000" stroke-width="1.5" stroke-linejoin="round"></path>
        <path d="M15,13 C16.1045695,13 17,12.1045695 17,11 C17,9.8954305 16.1045695,9 15,9 C13.8954305,9 13,9.8954305 13,11 C13,12.1045695 13.8954305,13 15,13 Z" id="Oval" fill-opacity="0.6" fill="#000000" fill-rule="evenodd"></path>
        <path d="M19.5,15.5 C15,15.5 9,14 9,11 C9,10.3333333 9.61785113,9.61785113 10.8535534,8.85355339 C10.9511845,8.77118446 11,8.65333333 11,8.5 C11,8.22 10.78,8 10.5,8 C10.32,8 6,10.25 6,12 C6,14 7.33333333,15.8333333 10,17.5 L18.25,17.5 C18.9403559,17.5 19.5,16.9403559 19.5,16.25 C19.5,16 19.5,15.75 19.5,15.5 Z" id="Path-Copy" fill="#000000" fill-rule="evenodd" opacity="0.600000024"></path>
    </g>
</svg>