<?xml version="1.0" encoding="UTF-8"?>
<svg width="24px" height="24px" viewBox="0 0 24 24" version="1.1" xmlns="http://www.w3.org/2000/svg" xmlns:xlink="http://www.w3.org/1999/xlink">
    <title>Icons/slots</title>
    <defs>
        <path d="M15.4361148,1 C16.3276335,1 16.6509198,1.09282561 16.9768457,1.2671327 C17.3027716,1.4414398 17.5585602,1.69722837 17.7328673,2.0231543 C17.9071744,2.34908022 18,2.67236646 18,3.5638852 L18,10 L13,15 L2.5638852,15 C1.67236646,15 1.34908022,14.9071744 1.0231543,14.7328673 C0.697228371,14.5585602 0.441439796,14.3027716 0.267132704,13.9768457 C0.0928256112,13.6509198 0,13.3276335 0,12.4361148 L0,6 L5,1 L15.4361148,1 Z" id="path-1"></path>
        <polygon id="path-3" points="2 4 9 4 2 11"></polygon>
        <filter x="-7.1%" y="-7.1%" width="114.3%" height="114.3%" filterUnits="objectBoundingBox" id="filter-4">
            <feGaussianBlur stdDeviation="0.25" in="SourceAlpha" result="shadowBlurInner1"></feGaussianBlur>
            <feOffset dx="-0.5" dy="-0.5" in="shadowBlurInner1" result="shadowOffsetInner1"></feOffset>
            <feComposite in="shadowOffsetInner1" in2="SourceAlpha" operator="arithmetic" k2="-1" k3="1" result="shadowInnerInner1"></feComposite>
            <feColorMatrix values="0 0 0 0 0   0 0 0 0 0   0 0 0 0 0  0 0 0 1 0" type="matrix" in="shadowInnerInner1"></feColorMatrix>
        </filter>
        <polygon id="path-5" points="15 13 22 13 15 20"></polygon>
        <filter x="-7.1%" y="-7.1%" width="114.3%" height="114.3%" filterUnits="objectBoundingBox" id="filter-6">
            <feGaussianBlur stdDeviation="0.25" in="SourceAlpha" result="shadowBlurInner1"></feGaussianBlur>
            <feOffset dx="-0.5" dy="-0.5" in="shadowBlurInner1" result="shadowOffsetInner1"></feOffset>
            <feComposite in="shadowOffsetInner1" in2="SourceAlpha" operator="arithmetic" k2="-1" k3="1" result="shadowInnerInner1"></feComposite>
            <feColorMatrix values="0 0 0 0 0   0 0 0 0 0   0 0 0 0 0  0 0 0 1 0" type="matrix" in="shadowInnerInner1"></feColorMatrix>
        </filter>
    </defs>
    <g id="Icons/slots" stroke="none" fill="none">
        <g id="Group" stroke-width="1" fill-rule="evenodd" transform="translate(3, 4)">
            <mask id="mask-2" fill="white">
                <use xlink:href="#path-1"></use>
            </mask>
            <g id="Combined-Shape"></g>
            <path d="M0.75,3.75 L0.75,12.25 C0.75,13.3545695 1.6454305,14.25 2.75,14.25 L15.25,14.25 C16.3545695,14.25 17.25,13.3545695 17.25,12.25 L17.25,3.75 C17.25,2.6454305 16.3545695,1.75 15.25,1.75 L2.75,1.75 C1.6454305,1.75 0.75,2.6454305 0.75,3.75 Z" id="Path-6" stroke="#000000" stroke-width="1.5" stroke-linejoin="round" mask="url(#mask-2)"></path>
            <path d="M12,9 C13.1045695,9 14,8.1045695 14,7 C14,5.8954305 13.1045695,5 12,5 C10.8954305,5 10,5.8954305 10,7 C10,8.1045695 10.8954305,9 12,9 Z" id="Oval" fill-opacity="0.6" fill="#000000" mask="url(#mask-2)"></path>
            <path d="M16.5,11.5 C12,11.5 6,10 6,7 C6,6.33333333 6.61785113,5.61785113 7.85355339,4.85355339 C7.95118446,4.77118446 8,4.65333333 8,4.5 C8,4.22 7.78,4 7.5,4 C7.32,4 3,6.25 3,8 C3,10 4.33333333,11.8333333 7,13.5 L15.25,13.5 C15.9403559,13.5 16.5,12.9403559 16.5,12.25 C16.5,12 16.5,11.75 16.5,11.5 Z" id="Path-Copy" fill="#000000" opacity="0.600000024" mask="url(#mask-2)"></path>
        </g>
        <g id="Rectangle-2" fill="black" fill-opacity="1">
            <use filter="url(#filter-4)" xlink:href="#path-3"></use>
        </g>
        <g id="Rectangle-2-Copy" transform="translate(18.5, 16.5) scale(-1, -1) translate(-18.5, -16.5)" fill="black" fill-opacity="1">
            <use filter="url(#filter-6)" xlink:href="#path-5"></use>
        </g>
    </g>
</svg>