<svg width="24" height="24" xmlns="http://www.w3.org/2000/svg">
    <g fill="none" fill-rule="evenodd">
        <path d="M0 0h24v24H0z"/>
        <path d="M22 5.894a8.273 8.273 0 01-2.356.636 4.059 4.059 0 001.804-2.234 8.283 8.283 0 01-2.607.979A4.124 4.124 0 0015.846 4c-2.264 0-4.101 1.809-4.101 4.039 0 .317.035.624.105.92a11.707 11.707 0 01-8.458-4.222 3.986 3.986 0 00-.555 2.033c0 1.4.724 2.637 1.825 3.362a4.156 4.156 0 01-1.859-.504v.05c0 1.957 1.415 3.59 3.293 3.96a4.065 4.065 0 01-1.081.142c-.265 0-.523-.024-.773-.071a4.097 4.097 0 003.833 2.803 8.314 8.314 0 01-5.096 1.73A8.55 8.55 0 012 18.187 11.767 11.767 0 008.29 20c7.548 0 11.674-6.154 11.674-11.492 0-.175-.003-.351-.01-.523A8.23 8.23 0 0022 5.895" fill="#000"/>
    </g>
</svg>
